<svg xmlns="http://www.w3.org/2000/svg" xmlns:xlink="http://www.w3.org/1999/xlink" width="1000" zoomAndPan="magnify"
    viewBox="0 0 750 749.999995" height="1000" preserveAspectRatio="xMidYMid meet" version="1.0">
    <defs>
        <clipPath id="7b35109c88">
            <path d="M 34.5 32 L 717.75 32 L 717.75 670 L 34.5 670 Z M 34.5 32 " clip-rule="nonzero" />
        </clipPath>
        <clipPath id="c4a7cfa49e">
            <path d="M 421 419 L 717.75 419 L 717.75 715.25 L 421 715.25 Z M 421 419 " clip-rule="nonzero" />
        </clipPath>
    </defs>
    <path fill="#8c9b28"
        d="M 661.039062 111.742188 L 592.6875 111.742188 L 592.6875 145.917969 C 592.6875 164.785156 577.382812 180.089844 558.511719 180.089844 C 539.644531 180.089844 524.339844 164.785156 524.339844 145.917969 L 524.339844 111.742188 L 410.421875 111.742188 L 410.421875 145.917969 C 410.421875 164.785156 395.117188 180.089844 376.246094 180.089844 C 357.378906 180.089844 342.074219 164.785156 342.074219 145.917969 L 342.074219 111.742188 L 228.15625 111.742188 L 228.15625 145.917969 C 228.15625 164.785156 212.851562 180.089844 193.980469 180.089844 C 175.113281 180.089844 159.808594 164.785156 159.808594 145.917969 L 159.808594 111.742188 L 91.457031 111.742188 C 66.273438 111.742188 45.890625 132.121094 45.890625 157.308594 L 45.890625 248.441406 L 706.605469 248.441406 L 706.605469 157.308594 C 706.605469 132.121094 686.222656 111.742188 661.039062 111.742188 "
        fill-opacity="1" fill-rule="nonzero" />
    <path fill="#8c9b28"
        d="M 342.074219 339.574219 C 342.074219 333.300781 336.957031 328.179688 330.679688 328.179688 L 285.113281 328.179688 C 278.839844 328.179688 273.722656 333.300781 273.722656 339.574219 L 273.722656 373.746094 C 273.722656 380.023438 278.839844 385.140625 285.113281 385.140625 L 330.679688 385.140625 C 336.957031 385.140625 342.074219 380.023438 342.074219 373.746094 L 342.074219 339.574219 "
        fill-opacity="1" fill-rule="nonzero" />
    <path fill="#8c9b28"
        d="M 205.375 339.574219 C 205.375 333.300781 200.257812 328.179688 193.980469 328.179688 L 148.414062 328.179688 C 142.140625 328.179688 137.023438 333.300781 137.023438 339.574219 L 137.023438 373.746094 C 137.023438 380.023438 142.140625 385.140625 148.414062 385.140625 L 193.980469 385.140625 C 200.257812 385.140625 205.375 380.023438 205.375 373.746094 L 205.375 339.574219 "
        fill-opacity="1" fill-rule="nonzero" />
    <path fill="#8c9b28"
        d="M 604.078125 385.140625 C 610.355469 385.140625 615.472656 380.023438 615.472656 373.746094 L 615.472656 339.574219 C 615.472656 333.300781 610.355469 328.179688 604.078125 328.179688 L 558.511719 328.179688 C 552.238281 328.179688 547.121094 333.300781 547.121094 339.574219 L 547.121094 373.746094 C 547.121094 380.023438 552.238281 385.140625 558.511719 385.140625 L 604.078125 385.140625 "
        fill-opacity="1" fill-rule="nonzero" />
    <path fill="#8c9b28"
        d="M 342.074219 442.097656 C 342.074219 435.824219 336.957031 430.707031 330.679688 430.707031 L 285.113281 430.707031 C 278.839844 430.707031 273.722656 435.824219 273.722656 442.097656 L 273.722656 476.273438 C 273.722656 482.546875 278.839844 487.664062 285.113281 487.664062 L 330.679688 487.664062 C 336.957031 487.664062 342.074219 482.546875 342.074219 476.273438 L 342.074219 442.097656 "
        fill-opacity="1" fill-rule="nonzero" />
    <path fill="#8c9b28"
        d="M 205.375 442.097656 C 205.375 435.824219 200.257812 430.707031 193.980469 430.707031 L 148.414062 430.707031 C 142.140625 430.707031 137.023438 435.824219 137.023438 442.097656 L 137.023438 476.273438 C 137.023438 482.546875 142.140625 487.664062 148.414062 487.664062 L 193.980469 487.664062 C 200.257812 487.664062 205.375 482.546875 205.375 476.273438 L 205.375 442.097656 "
        fill-opacity="1" fill-rule="nonzero" />
    <path fill="#8c9b28"
        d="M 330.679688 533.230469 L 285.113281 533.230469 C 278.839844 533.230469 273.722656 538.347656 273.722656 544.621094 L 273.722656 578.796875 C 273.722656 585.070312 278.839844 590.1875 285.113281 590.1875 L 330.679688 590.1875 C 336.957031 590.1875 342.074219 585.070312 342.074219 578.796875 L 342.074219 544.621094 C 342.074219 538.347656 336.957031 533.230469 330.679688 533.230469 "
        fill-opacity="1" fill-rule="nonzero" />
    <path fill="#8c9b28"
        d="M 421.8125 385.140625 L 467.378906 385.140625 C 473.65625 385.140625 478.773438 380.023438 478.773438 373.746094 L 478.773438 339.574219 C 478.773438 333.300781 473.65625 328.179688 467.378906 328.179688 L 421.8125 328.179688 C 415.539062 328.179688 410.421875 333.300781 410.421875 339.574219 L 410.421875 373.746094 C 410.421875 380.023438 415.539062 385.140625 421.8125 385.140625 "
        fill-opacity="1" fill-rule="nonzero" />
    <path fill="#8c9b28"
        d="M 421.8125 487.664062 L 467.378906 487.664062 C 473.65625 487.664062 478.773438 482.546875 478.773438 476.273438 L 478.773438 442.097656 C 478.773438 435.824219 473.65625 430.707031 467.378906 430.707031 L 421.8125 430.707031 C 415.539062 430.707031 410.421875 435.824219 410.421875 442.097656 L 410.421875 476.273438 C 410.421875 482.546875 415.539062 487.664062 421.8125 487.664062 "
        fill-opacity="1" fill-rule="nonzero" />
    <path fill="#8c9b28"
        d="M 193.980469 533.230469 L 148.414062 533.230469 C 142.140625 533.230469 137.023438 538.347656 137.023438 544.621094 L 137.023438 578.796875 C 137.023438 585.070312 142.140625 590.1875 148.414062 590.1875 L 193.980469 590.1875 C 200.257812 590.1875 205.375 585.070312 205.375 578.796875 L 205.375 544.621094 C 205.375 538.347656 200.257812 533.230469 193.980469 533.230469 "
        fill-opacity="1" fill-rule="nonzero" />
    <path fill="#8c9b28"
        d="M 569.90625 430.707031 C 494.390625 430.707031 433.207031 491.890625 433.207031 567.40625 C 433.207031 642.917969 494.390625 704.105469 569.90625 704.105469 C 645.417969 704.105469 706.605469 642.917969 706.605469 567.40625 C 706.605469 491.890625 645.417969 430.707031 569.90625 430.707031 "
        fill-opacity="1" fill-rule="nonzero" />
    <g clip-path="url(#7b35109c88)">
        <path fill="#000000"
            d="M 695.210938 237.050781 L 57.28125 237.050781 L 57.28125 157.308594 C 57.28125 138.527344 72.679688 123.132812 91.457031 123.132812 L 148.414062 123.132812 L 148.414062 145.917969 C 148.414062 171.101562 168.796875 191.484375 193.980469 191.484375 C 219.167969 191.484375 239.546875 171.101562 239.546875 145.917969 L 239.546875 123.132812 L 330.679688 123.132812 L 330.679688 145.917969 C 330.679688 171.101562 351.0625 191.484375 376.246094 191.484375 C 401.433594 191.484375 421.8125 171.101562 421.8125 145.917969 L 421.8125 123.132812 L 512.945312 123.132812 L 512.945312 145.917969 C 512.945312 171.101562 533.328125 191.484375 558.511719 191.484375 C 583.699219 191.484375 604.078125 171.101562 604.078125 145.917969 L 604.078125 123.132812 L 661.039062 123.132812 C 679.859375 123.132812 695.210938 138.527344 695.210938 157.308594 Z M 171.199219 77.566406 C 171.199219 65.019531 181.433594 54.785156 193.980469 54.785156 C 206.53125 54.785156 216.765625 65.019531 216.765625 77.566406 L 216.765625 145.917969 C 216.765625 158.464844 206.53125 168.699219 193.980469 168.699219 C 181.433594 168.699219 171.199219 158.464844 171.199219 145.917969 Z M 353.464844 77.566406 C 353.464844 65.019531 363.699219 54.785156 376.246094 54.785156 C 388.753906 54.785156 399.03125 65.019531 399.03125 77.566406 L 399.03125 145.917969 C 399.03125 158.464844 388.753906 168.699219 376.246094 168.699219 C 363.699219 168.699219 353.464844 158.464844 353.464844 145.917969 Z M 535.730469 77.566406 C 535.730469 65.019531 546.007812 54.785156 558.511719 54.785156 C 571.019531 54.785156 581.296875 65.019531 581.296875 77.566406 L 581.296875 145.917969 C 581.296875 158.464844 571.019531 168.699219 558.511719 168.699219 C 546.007812 168.699219 535.730469 158.464844 535.730469 145.917969 Z M 661.039062 100.351562 L 604.078125 100.351562 L 604.078125 77.566406 C 604.078125 52.378906 583.699219 32 558.511719 32 C 533.328125 32 512.945312 52.378906 512.945312 77.566406 L 512.945312 100.351562 L 421.8125 100.351562 L 421.8125 77.566406 C 421.8125 52.378906 401.433594 32 376.246094 32 C 351.0625 32 330.679688 52.378906 330.679688 77.566406 L 330.679688 100.351562 L 239.546875 100.351562 L 239.546875 77.566406 C 239.546875 52.378906 219.167969 32 193.980469 32 C 168.796875 32 148.414062 52.378906 148.414062 77.566406 L 148.414062 100.351562 L 91.457031 100.351562 C 59.996094 100.351562 34.5 125.847656 34.5 157.308594 L 34.5 612.972656 C 34.5 644.433594 59.996094 669.929688 91.457031 669.929688 L 410.421875 669.929688 C 416.695312 669.929688 421.8125 664.8125 421.8125 658.539062 C 421.8125 652.265625 416.695312 647.144531 410.421875 647.144531 L 91.457031 647.144531 C 72.679688 647.144531 57.28125 631.75 57.28125 612.972656 L 57.28125 259.832031 L 695.210938 259.832031 L 695.210938 453.488281 C 695.210938 459.761719 700.332031 464.878906 706.605469 464.878906 C 712.878906 464.878906 717.996094 459.761719 717.996094 453.488281 L 717.996094 157.308594 C 717.996094 125.847656 692.5 100.351562 661.039062 100.351562 "
            fill-opacity="1" fill-rule="nonzero" />
    </g>
    <path fill="#000000"
        d="M 285.113281 373.746094 L 285.113281 339.574219 L 330.679688 339.574219 L 330.679688 373.746094 Z M 353.464844 339.574219 C 353.464844 327.023438 343.230469 316.789062 330.679688 316.789062 L 285.113281 316.789062 C 272.566406 316.789062 262.332031 327.023438 262.332031 339.574219 L 262.332031 373.746094 C 262.332031 386.296875 272.566406 396.53125 285.113281 396.53125 L 330.679688 396.53125 C 343.230469 396.53125 353.464844 386.296875 353.464844 373.746094 L 353.464844 339.574219 "
        fill-opacity="1" fill-rule="nonzero" />
    <path fill="#000000"
        d="M 148.414062 373.746094 L 148.414062 339.574219 L 193.980469 339.574219 L 193.980469 373.746094 Z M 216.765625 339.574219 C 216.765625 327.023438 206.53125 316.789062 193.980469 316.789062 L 148.414062 316.789062 C 135.867188 316.789062 125.632812 327.023438 125.632812 339.574219 L 125.632812 373.746094 C 125.632812 386.296875 135.867188 396.53125 148.414062 396.53125 L 193.980469 396.53125 C 206.53125 396.53125 216.765625 386.296875 216.765625 373.746094 L 216.765625 339.574219 "
        fill-opacity="1" fill-rule="nonzero" />
    <path fill="#000000"
        d="M 558.511719 339.574219 L 604.078125 339.574219 L 604.078125 373.746094 L 558.511719 373.746094 Z M 604.078125 396.53125 C 616.628906 396.53125 626.863281 386.296875 626.863281 373.746094 L 626.863281 339.574219 C 626.863281 327.023438 616.628906 316.789062 604.078125 316.789062 L 558.511719 316.789062 C 545.964844 316.789062 535.730469 327.023438 535.730469 339.574219 L 535.730469 373.746094 C 535.730469 386.296875 545.964844 396.53125 558.511719 396.53125 L 604.078125 396.53125 "
        fill-opacity="1" fill-rule="nonzero" />
    <path fill="#000000"
        d="M 285.113281 476.273438 L 285.113281 442.097656 L 330.679688 442.097656 L 330.679688 476.273438 Z M 353.464844 442.097656 C 353.464844 429.550781 343.230469 419.3125 330.679688 419.3125 L 285.113281 419.3125 C 272.566406 419.3125 262.332031 429.550781 262.332031 442.097656 L 262.332031 476.273438 C 262.332031 488.820312 272.566406 499.054688 285.113281 499.054688 L 330.679688 499.054688 C 343.230469 499.054688 353.464844 488.820312 353.464844 476.273438 L 353.464844 442.097656 "
        fill-opacity="1" fill-rule="nonzero" />
    <path fill="#000000"
        d="M 148.414062 476.273438 L 148.414062 442.097656 L 193.980469 442.097656 L 193.980469 476.273438 Z M 216.765625 442.097656 C 216.765625 429.550781 206.53125 419.3125 193.980469 419.3125 L 148.414062 419.3125 C 135.867188 419.3125 125.632812 429.550781 125.632812 442.097656 L 125.632812 476.273438 C 125.632812 488.820312 135.867188 499.054688 148.414062 499.054688 L 193.980469 499.054688 C 206.53125 499.054688 216.765625 488.820312 216.765625 476.273438 L 216.765625 442.097656 "
        fill-opacity="1" fill-rule="nonzero" />
    <path fill="#000000"
        d="M 285.113281 578.796875 L 285.113281 544.621094 L 330.679688 544.621094 L 330.679688 578.796875 Z M 330.679688 521.839844 L 285.113281 521.839844 C 272.566406 521.839844 262.332031 532.074219 262.332031 544.621094 L 262.332031 578.796875 C 262.332031 591.34375 272.566406 601.578125 285.113281 601.578125 L 330.679688 601.578125 C 343.230469 601.578125 353.464844 591.34375 353.464844 578.796875 L 353.464844 544.621094 C 353.464844 532.074219 343.230469 521.839844 330.679688 521.839844 "
        fill-opacity="1" fill-rule="nonzero" />
    <path fill="#000000"
        d="M 421.8125 339.574219 L 467.378906 339.574219 L 467.378906 373.746094 L 421.8125 373.746094 Z M 421.8125 396.53125 L 467.378906 396.53125 C 479.929688 396.53125 490.164062 386.296875 490.164062 373.746094 L 490.164062 339.574219 C 490.164062 327.023438 479.929688 316.789062 467.378906 316.789062 L 421.8125 316.789062 C 409.265625 316.789062 399.03125 327.023438 399.03125 339.574219 L 399.03125 373.746094 C 399.03125 386.296875 409.265625 396.53125 421.8125 396.53125 "
        fill-opacity="1" fill-rule="nonzero" />
    <path fill="#000000"
        d="M 399.03125 476.273438 C 399.03125 488.820312 409.265625 499.054688 421.8125 499.054688 C 428.089844 499.054688 433.207031 493.9375 433.207031 487.664062 C 433.207031 481.390625 428.089844 476.273438 421.8125 476.273438 L 421.8125 442.097656 L 467.378906 442.097656 C 473.65625 442.097656 478.773438 436.980469 478.773438 430.707031 C 478.773438 424.433594 473.65625 419.3125 467.378906 419.3125 L 421.8125 419.3125 C 409.265625 419.3125 399.03125 429.550781 399.03125 442.097656 L 399.03125 476.273438 "
        fill-opacity="1" fill-rule="nonzero" />
    <path fill="#000000"
        d="M 148.414062 578.796875 L 148.414062 544.621094 L 193.980469 544.621094 L 193.980469 578.796875 Z M 193.980469 521.839844 L 148.414062 521.839844 C 135.867188 521.839844 125.632812 532.074219 125.632812 544.621094 L 125.632812 578.796875 C 125.632812 591.34375 135.867188 601.578125 148.414062 601.578125 L 193.980469 601.578125 C 206.53125 601.578125 216.765625 591.34375 216.765625 578.796875 L 216.765625 544.621094 C 216.765625 532.074219 206.53125 521.839844 193.980469 521.839844 "
        fill-opacity="1" fill-rule="nonzero" />
    <g clip-path="url(#c4a7cfa49e)">
        <path fill="#000000"
            d="M 569.90625 692.710938 C 500.800781 692.710938 444.597656 636.511719 444.597656 567.40625 C 444.597656 498.300781 500.800781 442.097656 569.90625 442.097656 C 639.011719 442.097656 695.210938 498.300781 695.210938 567.40625 C 695.210938 636.511719 639.011719 692.710938 569.90625 692.710938 Z M 569.90625 419.3125 C 488.25 419.3125 421.8125 485.75 421.8125 567.40625 C 421.8125 649.058594 488.25 715.496094 569.90625 715.496094 C 651.558594 715.496094 717.996094 649.058594 717.996094 567.40625 C 717.996094 485.75 651.558594 419.3125 569.90625 419.3125 "
            fill-opacity="1" fill-rule="nonzero" />
    </g>
    <path fill="#000000"
        d="M 635.71875 519.660156 L 547.121094 608.253906 L 506.851562 567.984375 C 502.402344 563.535156 495.191406 563.535156 490.742188 567.984375 C 486.292969 572.433594 486.292969 579.640625 490.742188 584.09375 L 539.066406 632.417969 C 541.203125 634.554688 544.097656 635.753906 547.121094 635.753906 C 550.148438 635.753906 553.039062 634.554688 555.175781 632.417969 L 651.828125 535.765625 C 656.277344 531.316406 656.277344 524.109375 651.828125 519.660156 C 647.378906 515.207031 640.167969 515.207031 635.71875 519.660156 "
        fill-opacity="1" fill-rule="nonzero" />
</svg>